<svg width="920" height="620" viewBox="0 0 920 620" fill="none" xmlns="http://www.w3.org/2000/svg">
<rect width="920" height="620" fill="white"/>
<path d="M361.261 287.19H343.466L364.968 353.512H384.123L405.625 287.19H387.83L374.365 337.149L361.261 287.19Z" fill="black"/>
<path d="M113 265H131.413V353.512H113V265Z" fill="black"/>
<path d="M149.579 265H167.992V353.512H149.579V265Z" fill="black"/>
<path d="M186.155 265H240.652V279.752H204.568V300.826H238.181V315.579H204.568V338.76H240.652V353.512H186.155V265Z" fill="black"/>
<path d="M251.896 265H269.32V353.512H251.896V265Z" fill="black"/>
<path d="M279.824 320.289C279.824 296.116 291.811 285.702 310.471 285.702C329.131 285.702 339.759 295.992 339.759 320.537V324.504H297.001C297.619 338.884 301.944 343.719 310.224 343.719C316.773 343.719 320.851 339.876 321.593 333.182H339.017C337.905 347.81 325.795 355 310.224 355C290.452 355 279.824 344.463 279.824 320.289ZM322.582 312.975C321.717 300.826 317.515 296.86 310.224 296.86C302.933 296.86 298.36 300.95 297.125 312.975H322.582Z" fill="black"/>
<path d="M408.962 320.289C408.962 296.116 420.949 285.702 439.609 285.702C458.269 285.702 468.897 295.992 468.897 320.537V324.504H426.139C426.757 338.884 431.082 343.719 439.362 343.719C445.911 343.719 449.989 339.876 450.731 333.182H468.155C467.043 347.81 454.932 355 439.362 355C419.589 355 408.962 344.463 408.962 320.289ZM451.719 312.975C450.854 300.826 446.653 296.86 439.362 296.86C432.071 296.86 427.498 300.95 426.263 312.975H451.719Z" fill="black"/>
<path d="M551.443 265H569.856V338.76H604.457V353.512H551.443V265Z" fill="black"/>
<path fill-rule="evenodd" clip-rule="evenodd" d="M608.783 320.289C608.783 295 620.399 285.702 635.352 285.702C642.766 285.702 649.563 289.917 652.282 294.38V287.19H670.077V353.512H652.776V345.702C650.181 350.909 642.89 355 634.857 355C619.04 355 608.783 344.835 608.783 320.289ZM639.924 298.719C648.574 298.719 653.27 305.289 653.27 320.289C653.27 335.289 648.574 341.983 639.924 341.983C631.274 341.983 626.331 335.289 626.331 320.289C626.331 305.289 631.274 298.719 639.924 298.719Z" fill="black"/>
<path fill-rule="evenodd" clip-rule="evenodd" d="M700.847 345.702V353.512H683.547V265H700.971V294.38C703.937 289.793 710.857 285.702 718.272 285.702C732.854 285.702 744.47 295 744.47 320.289C744.47 345.579 733.101 355 717.901 355C709.869 355 703.319 350.909 700.847 345.702ZM713.329 298.843C721.979 298.843 726.922 305.289 726.922 320.289C726.922 335.289 721.979 341.983 713.329 341.983C704.678 341.983 699.982 335.289 699.982 320.289C699.982 305.289 704.678 298.843 713.329 298.843Z" fill="black"/>
<path d="M751.638 333.802H769.062C769.309 340.744 773.016 344.091 779.566 344.091C786.115 344.091 789.823 341.116 789.823 335.909C789.823 331.198 786.981 329.463 780.802 327.975L775.488 326.612C760.412 322.769 752.873 318.678 752.873 306.157C752.873 293.636 764.49 285.702 779.319 285.702C794.148 285.702 805.393 291.529 805.888 305.289H788.463C788.093 299.215 784.385 296.612 779.072 296.612C773.758 296.612 770.051 299.215 770.051 304.174C770.051 308.76 773.016 310.496 778.207 311.736L783.644 313.099C797.979 316.694 807 320.289 807 333.678C807 347.066 795.137 355 779.072 355C761.647 355 752.008 348.43 751.638 333.802Z" fill="black"/>
<path d="M497.072 314.463C497.072 304.05 502.015 298.347 509.677 298.347C515.979 298.347 519.563 302.314 519.563 310.868V353.512H536.987V308.14C536.987 292.769 528.337 285.702 515.732 285.702C507.205 285.702 500.162 290.041 497.072 295.744V287.19H479.401V353.512H497.072V314.463Z" fill="black"/>
</svg>
